HIERARCHY
ROOT Hips
{
  OFFSET -1.56614 0.00 -1.85809
  CHANNELS 6 Xposition Yposition Zposition Zrotation Xrotation Yrotation
  JOINT LHipJoint
  {
    OFFSET 0 0 0
    CHANNELS 3 Zrotation Xrotation Yrotation
    JOINT LeftUpLeg
    {
      OFFSET 1.8 -1.4 0.085
      CHANNELS 3 Zrotation Xrotation Yrotation
      JOINT LeftLeg
      {
        OFFSET 2.215 -6 0
        CHANNELS 3 Zrotation Xrotation Yrotation
        JOINT LeftFoot
        {
          OFFSET 2.5 -6.9 0
          CHANNELS 3 Zrotation Xrotation Yrotation
          JOINT LeftToeBase
          {
            OFFSET 0.2 -0.5 1.95
            CHANNELS 3 Zrotation Xrotation Yrotation
            End Site
            {
              OFFSET 0 0 1
            }
          }
        }
      }
    }
  }
  JOINT RHipJoint
  {
    OFFSET 0 0 0
    CHANNELS 3 Zrotation Xrotation Yrotation
    JOINT RightUpLeg
    {
      OFFSET -1.8 -1.4 0.085
      CHANNELS 3 Zrotation Xrotation Yrotation
      JOINT RightLeg
      {
        OFFSET -2.215 -6 0
        CHANNELS 3 Zrotation Xrotation Yrotation
        JOINT RightFoot
        {
          OFFSET -2.5 -6.9 0
          CHANNELS 3 Zrotation Xrotation Yrotation
          JOINT RightToeBase
          {
            OFFSET -0.2 -0.5 1.95
            CHANNELS 3 Zrotation Xrotation Yrotation
            End Site
            {
              OFFSET 0 0 1
            }
          }
        }
      }
    }
  }
  JOINT LowerBack
  {
    OFFSET 0 0 0
    CHANNELS 3 Zrotation Xrotation Yrotation
    JOINT Spine
    {
      OFFSET -0.087 1.94 -0.2889
      CHANNELS 3 Zrotation Xrotation Yrotation
      JOINT Spine1
      {
        OFFSET 0 1.95 0.06
        CHANNELS 3 Zrotation Xrotation Yrotation
        JOINT Neck
        {
          OFFSET 0 0 0
          CHANNELS 3 Zrotation Xrotation Yrotation
          JOINT Neck1
          {
            OFFSET 0 1.6 0.34
            CHANNELS 3 Zrotation Xrotation Yrotation
            JOINT Head
            {
              OFFSET 0 1.667 -0.24
              CHANNELS 3 Zrotation Xrotation Yrotation
              End Site
              {
                OFFSET 0 1.686 -0.12
              }
            }
          }
        }
        JOINT LeftShoulder
        {
          OFFSET 0 0 0
          CHANNELS 3 Zrotation Xrotation Yrotation
          JOINT LeftArm
          {
            OFFSET 2.7 1.55 -0.73
            CHANNELS 3 Zrotation Xrotation Yrotation
            JOINT LeftForeArm
            {
              OFFSET 5.45 0 0
              CHANNELS 3 Zrotation Xrotation Yrotation
              JOINT LeftHand
              {
                OFFSET 3.45 0 0
                CHANNELS 3 Zrotation Xrotation Yrotation
                JOINT LeftFingerBase
                {
                  OFFSET 0 0 0
                  CHANNELS 3 Zrotation Xrotation Yrotation
                  JOINT LeftHandIndex1
                  {
                    OFFSET 0.75 0 0
                    CHANNELS 3 Zrotation Xrotation Yrotation
                    End Site
                    {
                      OFFSET 0.6 0 0
                    }
                  }
                }
                JOINT LThumb
                {
                  OFFSET 0 0 0
                  CHANNELS 3 Zrotation Xrotation Yrotation
                  End Site
                  {
                    OFFSET 0.59 0 0.59
                  }
                }
              }
            }
          }
        }
        JOINT RightShoulder
        {
          OFFSET 0 0 0
          CHANNELS 3 Zrotation Xrotation Yrotation
          JOINT RightArm
          {
            OFFSET -2.7 1.55 -0.73
            CHANNELS 3 Zrotation Xrotation Yrotation
            JOINT RightForeArm
            {
              OFFSET -5.45 0 0
              CHANNELS 3 Zrotation Xrotation Yrotation
              JOINT RightHand
              {
                OFFSET -3.45 0 0
                CHANNELS 3 Zrotation Xrotation Yrotation
                JOINT RightFingerBase
                {
                  OFFSET 0 0 0
                  CHANNELS 3 Zrotation Xrotation Yrotation
                  JOINT RightHandIndex1
                  {
                    OFFSET -0.75 0 0
                    CHANNELS 3 Zrotation Xrotation Yrotation
                    End Site
                    {
                      OFFSET -0.6 0 0
                    }
                  }
                }
                JOINT RThumb
                {
                  OFFSET 0 0 0
                  CHANNELS 3 Zrotation Xrotation Yrotation
                  End Site
                  {
                    OFFSET -0.59 0 0.59
                  }
                }
              }
            }
          }
        }
      }
    }
  }
}
MOTION
Frames:	12
Frame Time:	0.00833333
10.7837 18.7371 6.15275 1.60125 -2.99298 40.3792 0 1.19271e-015 -0 -17.941 -8.80416 11.5517 0.841455 9.28434 11.0192 -2.06321 6.4966 -15.6043 3.18055e-015 0 -3.18055e-015 0 1.19271e-015 -0 14.5629 2.95069 -3.99521 0.188337 2.0859 5.0827 5.57611 1.95935 -1.08193 4.77083e-015 -1.59028e-015 -6.36111e-015 0 1.19271e-015 -0 0.6789 -0.79619 -0.599132 0.485122 1.36002 -0.739802 -0.214492 -9.90241 0.410378 -0.401613 27.0967 0.524738 -0.789476 25.1448 1.37024 -19.4409 3.88024 -11.3689 -57.5216 -12.7834 -28.3892 -3.43293 61.2019 0.000830997 -24.1977 13.7976 -18.003 -3.92003e-010 6.74429e-008 -4.21859e-007 3.18055e-015 -6.36111e-015 -0 0 6.36111e-015 -0 19.4956 5.60331 17.808 57.5121 -23.9135 40.033 9.31317 54.6222 -0.000166485 19.1517 -12.2353 -34.5985 -9.54166e-015 -3.18055e-015 -3.97569e-015 -3.31043e-032 -1.59028e-015 -1.19271e-015 -9.54166e-015 -3.18055e-015 -3.97569e-015 
10.7976 18.7393 6.19116 1.62393 -3.09132 40.3966 -7.95139e-016 3.97569e-016 -1.59028e-014 -18.0164 -8.22264 11.2149 0.724774 10.4142 6.87537 -2.76867 4.703 -11.218 7.95139e-015 1.59028e-015 -3.18055e-015 -7.95139e-016 3.97569e-016 -1.59028e-014 14.7059 3.29871 -4.04921 0.185467 1.88093 5.04093 5.46653 1.93175 -1.0651 2.64834e-031 1.59028e-015 -9.54166e-015 -7.95139e-016 3.97569e-016 -1.59028e-014 0.793054 -0.956993 -0.526324 0.317668 1.10985 -0.637029 -0.319972 -9.99104 0.422089 -0.522292 27.0078 0.570114 -0.835769 24.7548 1.27374 -18.2146 3.89305 -12.1037 -57.0961 -13.3118 -30.5608 -2.29882 63.3702 0.00109143 -22.139 13.3772 -18.2347 -3.92e-010 6.74429e-008 -4.21859e-007 0 0 -3.18055e-015 3.18055e-015 -3.18055e-015 -0 18.0776 5.45913 18.3551 57.5992 -24.4165 41.9003 9.02755 54.0178 -0.0001671 19.7357 -11.225 -32.0661 0 0 -7.95139e-016 3.18055e-015 -7.95139e-016 -0 0 0 -7.95139e-016 
10.8117 18.7407 6.22988 1.63122 -3.15079 40.4135 0 0 -6.36111e-015 -18.1345 -7.66294 10.8134 0.780138 11.5853 2.57228 -3.34127 2.79638 -6.68568 -1.59028e-015 1.59028e-015 -9.54166e-015 0 0 -6.36111e-015 14.8473 3.54179 -4.06734 0.181657 1.77985 4.91311 5.30913 1.86591 -1.02762 -1.59028e-015 0 -3.18055e-015 0 0 -6.36111e-015 0.896102 -1.15579 -0.447902 0.154914 0.850597 -0.530071 -0.427128 -10.1062 0.430714 -0.64335 26.8923 0.612384 -0.89739 24.3541 1.16951 -16.9082 3.86327 -12.7767 -56.6115 -13.8144 -32.7416 -0.701831 66.8723 0.00149226 -19.0045 11.9846 -16.2543 -3.92003e-010 6.74429e-008 -4.21859e-007 0 3.18055e-015 -0 3.53113e-031 -6.36111e-015 3.18055e-015 16.6082 5.27035 18.8258 57.8326 -24.9873 43.8782 8.5922 53.3039 -0.000167097 21.0582 -10.4711 -29.4259 -6.36111e-015 7.95139e-016 3.97569e-016 -1.27222e-014 7.95139e-016 7.95139e-016 -6.36111e-015 7.95139e-016 3.97569e-016 
10.8263 18.7414 6.26951 1.63736 -3.19286 40.4208 -3.97569e-016 -3.97569e-016 -3.18055e-015 -18.2548 -7.14652 10.4532 1.00178 12.5691 -1.23362 -3.66882 1.06896 -2.72035 1.59028e-015 -3.18055e-015 -0 -3.97569e-016 -3.97569e-016 -3.18055e-015 14.9783 3.748 -4.07695 0.177685 1.72781 4.76014 5.14972 1.75763 -0.971359 1.59028e-015 -6.36111e-015 -1.27222e-014 -3.97569e-016 -3.97569e-016 -3.18055e-015 0.998992 -1.35078 -0.367009 -0.0192969 0.58235 -0.419545 -0.532247 -10.2591 0.439368 -0.761844 26.739 0.653789 -0.982394 23.9367 1.07594 -15.5701 3.79951 -13.3748 -56.0686 -14.3063 -34.9032 0.670957 70.0126 0.00202271 -15.9719 10.463 -13.9124 -3.92e-010 6.74429e-008 -4.21859e-007 3.53113e-031 6.36111e-015 -3.18055e-015 -0 -9.54166e-015 -0 15.1145 5.05012 19.2204 58.0689 -25.4903 45.901 8.17761 52.6257 -0.000167062 21.629 -9.70096 -26.7854 3.18055e-015 1.19271e-015 5.96354e-016 3.18055e-015 3.97569e-016 -1.98785e-016 3.18055e-015 1.19271e-015 7.95139e-016 
10.8421 18.7417 6.31063 1.65651 -3.23827 40.4099 -1.19271e-015 0 3.18055e-015 -18.3436 -6.6956 10.2358 1.28739 13.1814 -3.88056 -3.79702 -0.185756 -0.0113858 3.18055e-015 1.59028e-015 6.36111e-015 -1.19271e-015 0 3.18055e-015 15.091 3.98259 -4.10441 0.174334 1.67303 4.63909 5.03268 1.60142 -0.897518 -1.59028e-015 -1.59028e-015 -1.27222e-014 -1.19271e-015 0 3.18055e-015 1.11236 -1.50101 -0.286385 -0.221742 0.304312 -0.305546 -0.631381 -10.4602 0.450884 -0.874447 26.5375 0.696169 -1.09823 23.4962 1.01041 -14.2447 3.70948 -13.8863 -55.4657 -14.8002 -37.0188 1.14329 71.1346 0.00249046 -14.4735 9.74967 -12.9166 -3.92003e-010 6.74429e-008 -4.21859e-007 3.18055e-015 -3.18055e-015 -0 -3.18055e-015 6.36111e-015 -0 13.6205 4.81043 19.5405 58.1461 -25.8094 47.8894 7.95099 52.1096 -0.00016746 19.8858 -8.62151 -24.2385 -3.18055e-015 1.19271e-015 -1.19271e-015 -3.18055e-015 3.97569e-016 3.97569e-016 -3.18055e-015 1.19271e-015 -1.19271e-015 
10.8587 18.7411 6.35321 1.69438 -3.28541 40.3835 -7.95139e-016 0 3.18055e-015 -18.4256 -6.31512 10.1499 1.55976 13.4685 -5.30795 -3.91254 -0.945572 1.42563 4.77083e-015 -3.18055e-015 3.18055e-015 -7.95139e-016 0 3.18055e-015 15.1844 4.2336 -4.1453 0.171491 1.63863 4.51705 4.95568 1.37592 -0.79632 -1.59028e-015 0 -6.36111e-015 -7.95139e-016 0 3.18055e-015 1.24023 -1.60086 -0.201254 -0.468803 0.0026843 -0.180421 -0.719801 -10.7023 0.462276 -0.974753 26.295 0.73475 -1.24703 23.028 0.96888 -12.901 3.58424 -14.3227 -54.7515 -15.259 -39.0847 0.573192 70.0841 0.00272458 -14.9172 9.89596 -13.0342 -3.91993e-010 6.74429e-008 -4.21859e-007 1.76556e-031 3.18055e-015 -3.18055e-015 0 0 -3.18055e-015 12.0997 4.54029 19.8053 58.0296 -25.9203 49.8003 7.93767 51.532 -0.000167434 14.6588 -7.04356 -21.3697 -6.36111e-015 9.19379e-016 -7.70291e-016 -6.36111e-015 -4.72114e-016 3.23025e-016 -6.36111e-015 9.19379e-016 -7.70291e-016 
10.8762 18.7399 6.39697 1.73819 -3.32464 40.3438 4.41391e-032 7.95139e-016 -3.18055e-015 -18.504 -5.99036 10.1495 1.79381 13.5427 -5.89474 -4.08843 -1.35263 1.98989 -1.59028e-015 -4.77083e-015 3.18055e-015 4.41391e-032 7.95139e-016 -3.18055e-015 15.2638 4.4766 -4.18941 0.169221 1.63186 4.39266 4.89796 1.1031 -0.675874 -5.29669e-031 -3.18055e-015 -9.54166e-015 4.41391e-032 7.95139e-016 -3.18055e-015 1.37301 -1.67733 -0.114401 -0.736456 -0.309801 -0.0509219 -0.803758 -10.9861 0.474706 -1.07005 26.0107 0.772721 -1.4218 22.5397 0.945175 -11.5438 3.42828 -14.6802 -53.9719 -15.7031 -41.1189 -0.549294 67.8887 0.00281649 -16.2554 10.3867 -13.5305 -3.92e-010 6.74429e-008 -4.21859e-007 6.36111e-015 3.18055e-015 -3.18055e-015 0 0 -3.18055e-015 10.5619 4.24305 19.9973 57.806 -25.9205 51.6926 8.02523 51.0241 -0.000167472 7.74075 -5.27643 -18.5197 9.54166e-015 3.97569e-015 -2.78299e-015 -9.54166e-015 -3.97569e-016 7.95139e-016 9.54166e-015 3.97569e-015 -2.78299e-015 
10.8946 18.7389 6.44174 1.7728 -3.35032 40.2897 -3.97569e-016 -7.95139e-016 -0 -18.5604 -5.70619 10.2101 1.98278 13.4654 -5.97096 -4.3066 -1.52127 2.00186 3.18055e-015 0 6.36111e-015 -3.97569e-016 -7.95139e-016 -0 15.3346 4.70498 -4.23344 0.167745 1.63567 4.29698 4.84636 0.820245 -0.551789 -3.53113e-031 -6.36111e-015 -3.18055e-015 -3.97569e-016 -7.95139e-016 -0 1.49947 -1.75617 -0.0325697 -0.990896 -0.610138 0.0704359 -0.892424 -11.3195 0.49199 -1.17179 25.6767 0.817028 -1.61461 22.0415 0.938361 -10.2073 3.25381 -14.9445 -53.2182 -16.1766 -43.1418 -1.71811 65.4689 0.00289442 -17.393 10.8188 -14.0584 -3.92003e-010 6.74429e-008 -4.21859e-007 -1.76556e-031 -3.18055e-015 -3.18055e-015 3.18055e-015 9.54166e-015 -6.36111e-015 9.03848 3.93137 20.085 57.5676 -25.9007 53.6447 8.10465 50.903 -0.000168698 1.70461 -3.79148 -16.3294 -3.18055e-015 -3.97569e-016 -1.59028e-015 -3.18055e-015 7.95139e-016 -7.95139e-016 -3.18055e-015 -3.97569e-016 -1.59028e-015 
10.9141 18.7388 6.48738 1.78322 -3.35711 40.2197 -0 -3.97569e-016 -0 -18.5761 -5.44795 10.3096 2.13093 13.2864 -5.84847 -4.52727 -1.55762 1.76141 1.76556e-031 3.18055e-015 -3.18055e-015 -0 -3.97569e-016 -0 15.4024 4.91238 -4.27397 0.167133 1.63335 4.26001 4.78734 0.563272 -0.439067 1.59028e-015 -3.18055e-015 -9.54166e-015 -0 -3.97569e-016 -0 1.6091 -1.86289 0.0379752 -1.19976 -0.875361 0.171748 -0.994116 -11.7098 0.517821 -1.29033 25.2857 0.874143 -1.8202 21.5418 0.948325 -8.92234 3.07193 -15.1034 -52.5878 -16.7163 -45.1767 -2.44298 63.7096 0.00301558 -17.284 10.8097 -14.2935 -3.92e-010 6.74429e-008 -4.21859e-007 1.76556e-031 -3.18055e-015 3.18055e-015 3.18055e-015 -3.18055e-015 3.18055e-015 7.55705 3.616 20.036 57.4195 -25.9244 55.7386 8.06866 51.5046 -0.000172378 -0.774905 -3.10159 -15.4275 9.54166e-015 7.95139e-016 -0 -3.18055e-015 3.18055e-015 1.59028e-015 9.54166e-015 7.95139e-016 -0 
10.9344 18.7399 6.53447 1.76445 -3.34708 40.1269 3.97569e-016 0 1.59028e-014 -18.5474 -5.21837 10.4672 2.24718 12.9411 -5.35861 -4.75973 -1.39783 1.08945 4.77083e-015 -4.77083e-015 3.18055e-015 3.97569e-016 0 1.59028e-014 15.4756 5.09986 -4.30746 0.167308 1.62289 4.27931 4.71805 0.327306 -0.335637 -1.59028e-015 0 -9.54166e-015 3.97569e-016 0 1.59028e-014 1.7061 -2.00515 0.101587 -1.36376 -1.09587 0.256905 -1.10141 -12.1556 0.551686 -1.41717 24.839 0.941084 -2.07637 21.0174 0.987033 -7.66779 2.87342 -15.1763 -52.1215 -17.3302 -47.2373 -2.74153 62.4699 0.00260809 -15.8791 10.3951 -14.5285 -3.92e-010 6.74429e-008 -4.21859e-007 -0 -3.18055e-015 -0 3.18055e-015 0 3.18055e-015 6.08272 3.27875 19.827 57.3975 -25.8921 57.9968 7.89585 53.2612 -0.000180661 1.17834 -3.47846 -16.2251 -6.36111e-015 -7.95139e-016 -0 4.41391e-032 1.59028e-015 -1.59028e-015 -6.36111e-015 -7.95139e-016 -0 
10.9557 18.7415 6.58257 1.72916 -3.32111 40.0183 -7.95139e-016 -1.98785e-015 -0 -18.4889 -5.02304 10.6773 2.33642 12.4566 -4.48783 -5.00754 -1.04118 -0.0153578 4.77083e-015 1.59028e-015 6.36111e-015 -7.95139e-016 -1.98785e-015 -0 15.5435 5.2699 -4.33886 0.168334 1.61507 4.34094 4.64797 0.0974045 -0.235261 -4.77083e-015 -4.77083e-015 -9.54166e-015 -7.95139e-016 -1.98785e-015 -0 1.79244 -2.16241 0.157757 -1.50049 -1.29255 0.328839 -1.2159 -12.6543 0.592205 -1.55335 24.3393 1.01668 -2.35081 20.4845 1.04338 -6.4439 2.66011 -15.1526 -51.7519 -17.9616 -49.3098 -2.86163 61.4 0.00229323 -13.7948 9.75205 -14.6759 -3.92e-010 6.74429e-008 -4.21859e-007 9.54166e-015 0 -3.18055e-015 -0 -3.18055e-015 -0 4.62613 2.92795 19.4966 57.4225 -25.8027 60.341 7.66294 55.6071 -0.000192414 5.43563 -4.44051 -17.9991 -0 -1.59028e-015 -0 -0 -7.95139e-016 -0 -0 -1.59028e-015 -0 
10.9784 18.743 6.63081 1.69182 -3.27773 39.906 6.62086e-032 -3.97569e-016 9.54166e-015 -18.415 -4.86351 10.9169 2.39819 11.9154 -3.3913 -5.25722 -0.549585 -1.3794 -1.59028e-015 0 3.18055e-015 6.62086e-032 -3.97569e-016 9.54166e-015 15.5899 5.42333 -4.37527 0.170294 1.61995 4.43681 4.58686 -0.132885 -0.135268 3.18055e-015 -1.59028e-015 -6.36111e-015 6.62086e-032 -3.97569e-016 9.54166e-015 1.86544 -2.31183 0.201857 -1.6228 -1.49045 0.385954 -1.34567 -13.205 0.638934 -1.70729 23.7873 1.10272 -2.58253 19.9778 1.09736 -5.27011 2.44205 -15.0057 -51.3926 -18.5515 -51.3722 -2.97192 60.3747 0.0030385 -11.5342 8.977 -14.3865 -3.92006e-010 6.74429e-008 -4.21859e-007 6.36111e-015 0 -0 -6.36111e-015 -3.18055e-015 6.36111e-015 3.22759 2.58704 19.0971 57.4133 -25.7265 62.6932 7.44831 57.6964 -0.000204266 9.64004 -5.39243 -19.7921 0 7.95139e-016 -0 0 0 -0 0 7.95139e-016 -0 
